<svg xmlns="http://www.w3.org/2000/svg" xmlns:xlink="http://www.w3.org/1999/xlink" viewBox="0 0 312 436">
    <defs>
        <clipPath id="a">
            <rect width="312" height="436" fill="none"/>
        </clipPath>
    </defs>
    <g clip-path="url(#a)">
        <path d="M155.92,153.56A64.64,64.64,0,1,1,91.28,218.2a64.64,64.64,0,0,1,64.64-64.64h0m0-24.24a88.67,88.67,0,1,0,34.6,7A88.68,88.68,0,0,0,155.92,129.32Z"
              fill="#ffb8f6" opacity="0.06"/>
        <path d="M155.85,104.7A113.66,113.66,0,1,1,42.2,218.36h0A113.65,113.65,0,0,1,155.85,104.7m0-31.24a144.54,144.54,0,1,0,56.41,11.4A144.53,144.53,0,0,0,155.85,73.46Z"
              fill="#ffb8f6" opacity="0.08"/>
        <path d="M155.78,53.15A165.37,165.37,0,1,1-9.59,218.52h0A165.37,165.37,0,0,1,155.78,53.15m0-36.63C44.51,16.64-45.6,106.94-45.48,218.22S44.94,419.6,156.22,419.48s201.38-90.42,201.26-201.7A201.49,201.49,0,0,0,155.78,16.52Z"
              fill="#ffb8f6" opacity="0.11"/>
    </g>
</svg>